<?xml version="1.0" standalone="no"?>
<!DOCTYPE svg PUBLIC "-//W3C//DTD SVG 20010904//EN"
 "http://www.w3.org/TR/2001/REC-SVG-20010904/DTD/svg10.dtd">
<svg version="1.0" xmlns="http://www.w3.org/2000/svg"
 width="640.000000pt" height="640.000000pt" viewBox="0 0 640.000000 640.000000"
 preserveAspectRatio="xMidYMid meet">
<metadata>
Created by potrace 1.11, written by Peter Selinger 2001-2013
</metadata>
<g transform="translate(0.000000,640.000000) scale(0.100000,-0.100000)"
fill="#000000" stroke="none">
<path d="M0 5960 c0 -242 3 -440 6 -440 3 0 17 9 31 20 14 11 30 20 34 20 5 0
9 -9 9 -20 0 -16 7 -20 30 -20 33 0 38 -11 15 -30 -14 -12 -48 -10 -102 6
l-23 6 0 -631 0 -631 80 0 80 0 0 -40 0 -40 -41 0 -41 0 7 -40 7 -40 -46 0
-46 0 0 -120 c0 -113 1 -120 20 -120 17 0 20 7 20 40 0 33 3 40 19 40 22 0 29
-40 23 -142 l-4 -58 -39 0 c-32 0 -39 -3 -39 -20 0 -17 7 -20 40 -20 l40 0 0
-93 0 -93 35 -13 c37 -13 57 -6 78 27 4 6 15 12 25 12 11 0 4 12 -23 40 l-39
40 122 0 c115 0 122 1 122 20 0 17 7 20 40 20 33 0 40 3 40 20 0 17 7 20 40
20 l40 0 0 -40 c0 -22 5 -40 10 -40 6 0 10 11 10 24 0 13 3 31 6 40 8 21 54
21 54 1 0 -11 11 -15 40 -15 33 0 40 -3 40 -20 0 -17 7 -20 40 -20 37 0 40 -2
39 -27 -2 -24 -2 -25 -6 -5 -3 17 -11 22 -33 22 -25 0 -29 -4 -35 -40 -8 -45
-29 -53 -58 -20 -12 15 -29 20 -62 20 l-45 0 0 -60 c0 -53 -2 -60 -20 -60 -17
0 -20 7 -20 40 0 33 -3 40 -20 40 -13 0 -20 7 -20 20 0 17 -7 20 -40 20 -33 0
-40 -3 -40 -20 0 -17 7 -20 40 -20 32 0 40 -4 40 -19 0 -15 -10 -19 -53 -24
-28 -2 -60 -1 -69 4 -9 5 -30 6 -47 3 -27 -6 -31 -4 -31 14 0 11 7 22 16 24
11 2 6 12 -20 37 l-36 35 0 -57 c0 -50 2 -57 20 -57 18 0 20 -7 20 -60 0 -50
-3 -60 -17 -60 -13 0 -7 -10 20 -38 20 -21 37 -41 37 -45 0 -4 -18 -7 -40 -7
l-40 0 0 -55 0 -55 -80 0 c-64 0 -80 3 -80 15 0 11 -11 15 -40 15 l-40 0 0
-72 0 -72 38 37 38 37 91 0 90 0 7 -41 c7 -47 15 -46 25 3 6 32 9 33 59 36 41
2 52 0 52 -12 0 -8 11 -27 25 -41 22 -21 35 -25 85 -25 l60 0 0 -32 c0 -21 -3
-28 -9 -20 -6 10 -48 13 -164 15 -120 1 -157 4 -157 14 0 8 -14 13 -40 13
l-40 0 0 -72 0 -72 38 37 c43 42 72 48 72 16 0 -20 4 -21 40 -15 32 5 40 3 40
-9 0 -8 -7 -15 -15 -15 -8 0 -15 -4 -15 -10 0 -5 9 -10 20 -10 11 0 20 5 20
10 0 6 9 10 20 10 19 0 20 -7 20 -90 0 -60 4 -90 11 -90 8 0 10 15 5 48 -3 27
-3 62 0 80 6 30 8 31 56 30 l50 0 -21 -22 c-12 -13 -21 -36 -21 -53 0 -18 -4
-43 -10 -57 -6 -17 -6 -26 0 -26 6 0 10 -9 10 -20 0 -17 7 -20 40 -20 31 0 40
4 40 17 0 14 3 14 12 5 10 -10 10 -15 -1 -21 -21 -13 -2 -34 25 -28 14 2 27 0
30 -4 3 -5 -29 -9 -70 -9 -69 0 -76 -2 -76 -20 0 -16 7 -20 38 -21 105 -4 122
-6 129 -13 4 -4 10 -48 13 -99 5 -88 29 -167 51 -167 5 0 9 -9 9 -20 0 -12 11
-31 25 -44 14 -13 25 -30 25 -39 0 -9 9 -21 20 -27 11 -6 20 -20 20 -31 0 -10
15 -34 33 -52 34 -34 48 -56 80 -122 11 -22 34 -58 52 -80 18 -22 47 -67 65
-100 53 -97 178 -210 274 -248 28 -11 69 -28 92 -38 26 -13 63 -19 106 -19 61
0 70 3 119 40 55 41 95 51 105 26 3 -8 24 -19 48 -25 23 -6 51 -20 62 -32 10
-12 36 -30 57 -40 23 -12 37 -27 37 -39 0 -19 -8 -23 -68 -35 -18 -4 -53 -25
-78 -48 -41 -39 -46 -47 -55 -110 -11 -81 -34 -116 -104 -157 -27 -17 -65 -40
-83 -51 -19 -13 -55 -23 -87 -25 -47 -3 -64 -10 -119 -51 -35 -27 -75 -56 -89
-67 -15 -10 -40 -41 -56 -70 -16 -28 -45 -67 -66 -86 -20 -19 -44 -53 -55 -76
-10 -23 -31 -56 -47 -75 -16 -19 -39 -50 -51 -69 -11 -19 -33 -47 -47 -63 -15
-15 -28 -37 -30 -49 -3 -12 -17 -34 -32 -50 -15 -15 -23 -28 -18 -28 5 0 2 -6
-7 -12 -8 -7 -23 -43 -33 -80 -10 -38 -21 -68 -25 -68 -4 0 -19 -24 -33 -54
-15 -29 -33 -56 -41 -59 -8 -3 -20 -15 -26 -26 l-11 -21 646 0 c428 0 644 3
640 10 -3 5 -20 10 -36 10 -26 0 -30 3 -27 23 2 17 8 21 27 19 47 -7 71 -21
71 -42 0 -14 7 -20 21 -20 21 0 21 4 16 73 -4 58 -1 79 14 109 23 45 31 50 64
42 19 -5 25 -12 22 -25 -3 -10 1 -20 9 -23 10 -4 14 3 14 22 0 16 5 33 12 40
9 9 3 12 -30 12 l-43 0 3 98 3 97 203 3 202 2 0 -33 c0 -20 7 -41 19 -51 18
-17 24 -16 96 1 16 3 17 2 5 -6 -13 -10 -13 -12 0 -21 11 -7 12 -10 2 -10 -10
0 -12 -8 -7 -31 4 -17 7 -45 7 -63 0 -29 3 -32 24 -28 26 5 55 32 35 32 -7 0
-10 4 -7 9 3 5 -2 23 -11 42 -12 23 -13 34 -5 37 20 6 13 52 -13 86 l-24 32
29 35 c16 20 45 64 65 98 29 50 41 62 58 59 14 -2 23 -11 25 -25 3 -22 6 -23
170 -25 l167 -3 0 -30 0 -30 -182 -2 c-101 -1 -187 -3 -192 -3 -5 0 -11 -6
-14 -14 -5 -12 24 -14 186 -11 175 4 265 -4 306 -24 9 -5 15 -24 15 -51 1 -32
5 -44 17 -45 15 -3 17 12 18 113 1 63 4 119 7 124 8 12 404 10 405 -2 1 -5 3
-14 4 -20 1 -5 3 -25 4 -42 2 -37 30 -81 38 -60 7 17 78 15 93 -3 7 -8 16 -15
19 -15 9 0 39 68 52 116 7 23 16 34 29 34 28 0 52 -28 41 -48 -4 -9 -11 -29
-15 -45 -6 -24 -4 -27 21 -27 42 0 49 9 63 73 15 65 21 72 56 63 18 -5 24 -12
20 -24 -2 -9 -7 -38 -11 -64 l-6 -48 85 0 c47 0 86 4 86 9 0 5 -21 28 -47 51
l-47 41 21 21 21 21 51 -43 c50 -42 61 -63 41 -75 -21 -13 -9 -25 24 -25 28 0
34 -4 39 -26 2 -14 0 -27 -7 -29 -6 -2 -72 -6 -146 -7 -135 -3 -135 -3 -138
-28 -3 -20 -2 -22 11 -12 10 9 17 10 22 2 3 -6 44 -10 95 -10 62 0 90 -4 93
-12 7 -24 -11 -76 -43 -124 l-32 -48 24 -18 c12 -9 39 -23 58 -29 65 -22 71
-27 58 -54 -13 -29 -32 -31 -88 -9 -22 9 -46 14 -54 11 -10 -4 -13 -1 -9 9 3
7 1 14 -5 14 -6 0 -17 3 -26 6 -9 3 -16 1 -16 -5 0 -6 8 -11 18 -12 10 0 12
-3 5 -6 -15 -6 -17 -33 -3 -33 5 0 8 -18 6 -40 l-3 -40 775 2 c610 2 776 6
780 16 2 7 -2 10 -11 6 -10 -3 -17 3 -21 20 -3 13 -21 39 -38 57 -31 30 -46
60 -69 136 -6 18 -14 33 -18 33 -5 0 -27 35 -48 78 -22 42 -61 100 -87 127
-26 28 -61 69 -78 93 -17 23 -37 42 -44 42 -7 0 -24 25 -39 55 -14 30 -30 55
-35 55 -5 0 -15 18 -21 40 -7 22 -26 53 -43 69 -44 43 -56 58 -56 74 0 8 -12
20 -27 27 -16 6 -44 32 -63 56 -48 61 -82 94 -98 94 -7 0 -23 10 -35 23 -13
12 -35 27 -50 34 -14 7 -38 31 -52 53 -14 23 -32 43 -40 47 -8 3 -15 12 -15
20 0 16 -54 71 -90 92 -55 32 -76 41 -92 41 -9 0 -20 5 -23 10 -3 6 -15 10
-25 10 -11 0 -32 11 -47 26 -15 14 -43 35 -62 47 -54 35 -59 50 -30 91 13 20
43 50 67 67 23 16 42 36 42 44 0 7 9 17 20 20 28 9 59 43 76 82 21 48 107 146
145 164 34 16 135 44 219 60 25 5 50 10 55 12 6 2 26 7 45 11 38 9 90 36 90
47 0 15 -34 18 -75 8 -67 -17 -121 11 -184 98 -58 77 -70 109 -78 208 -4 57
-1 81 17 130 44 118 59 161 63 185 10 52 30 125 37 135 4 6 15 35 25 65 10 30
21 60 25 65 20 27 33 89 36 173 2 51 8 101 14 111 5 10 12 70 15 132 7 158 12
191 42 294 27 92 69 155 103 155 9 0 21 5 26 10 6 6 19 8 28 4 14 -5 15 -9 4
-15 -10 -7 -10 -9 -1 -9 15 0 42 59 36 77 -3 6 -19 13 -35 15 -22 2 -32 9 -34
23 -2 11 -8 21 -13 23 -15 5 -14 21 4 38 8 9 15 29 15 45 0 29 -1 29 -55 29
-54 0 -55 0 -55 -30 0 -20 5 -30 15 -30 8 0 15 -4 15 -10 0 -5 -11 -10 -25
-10 -22 0 -25 4 -25 40 0 39 -1 40 -34 40 -28 0 -35 4 -38 22 -3 21 -4 21 -20
4 -12 -11 -18 -33 -18 -62 0 -37 3 -44 20 -44 17 0 20 -7 20 -45 l0 -45 -37 1
c-31 2 -33 3 -10 6 34 5 35 26 2 58 -29 30 -35 31 -35 5 0 -21 -32 -44 -45
-32 -4 4 -4 -9 0 -28 7 -35 7 -35 -12 -15 -11 12 -23 34 -27 49 l-7 29 -33
-32 c-33 -32 -83 -44 -73 -17 3 8 -5 24 -19 37 -18 17 -24 33 -24 66 0 24 5
43 10 43 6 0 10 -18 10 -40 0 -33 3 -40 20 -40 26 0 27 46 3 113 -17 47 -43
64 -43 27 0 -23 -10 -26 -28 -8 -8 8 -12 45 -12 100 l0 88 -42 0 c-24 0 -67
-3 -95 -6 -50 -6 -53 -8 -59 -41 -6 -32 -7 -33 -20 -15 -17 25 -21 91 -6 119
8 14 8 23 1 25 -12 4 -1 38 12 38 5 0 9 -9 9 -20 0 -17 7 -20 40 -20 24 0 40
-5 40 -12 0 -9 3 -9 12 0 7 7 25 12 40 12 21 0 28 5 28 20 0 11 4 20 10 20 5
0 15 -9 22 -20 7 -11 21 -20 30 -20 11 0 18 -8 18 -20 0 -17 7 -20 40 -20 33
0 40 3 40 20 0 17 7 20 40 20 38 0 40 -1 40 -32 0 -55 12 -22 16 44 2 34 8 64
14 66 13 5 13 82 -1 82 -6 0 -8 9 -5 20 3 11 8 29 11 39 4 15 0 21 -17 24 -13
2 -3 4 22 4 25 1 37 -1 27 -4 -18 -5 -19 -21 -1 -67 3 -9 1 -16 -5 -16 -6 0
-11 -17 -11 -40 0 -22 5 -40 10 -40 6 0 10 -9 10 -20 0 -26 15 -26 37 0 10 11
23 20 30 20 7 0 13 17 15 43 l3 42 45 0 45 0 3 -42 3 -43 -42 0 -43 0 35 -36
c25 -26 35 -31 37 -20 5 21 82 23 82 2 0 -10 22 -16 80 -21 l80 -7 0 -39 c0
-39 0 -39 -40 -39 l-40 0 0 40 0 40 -45 0 c-43 0 -45 -1 -45 -29 0 -16 3 -43
6 -60 l7 -31 78 0 c72 0 79 2 79 20 0 17 7 20 45 20 41 0 45 2 51 28 3 15 7
33 10 40 2 6 -3 12 -11 12 -11 0 -15 11 -15 40 l0 40 40 0 c33 0 40 -3 40 -20
0 -17 7 -20 40 -20 l40 0 0 140 0 140 40 0 40 0 0 -80 c0 -79 0 -80 -25 -80
-22 0 -25 -4 -25 -40 0 -36 3 -40 25 -40 18 0 25 -5 25 -20 0 -19 7 -20 120
-20 113 0 120 1 120 20 0 13 -7 20 -20 20 -26 0 -26 16 0 32 27 17 26 48 -1
48 -17 0 -20 4 -15 23 3 12 6 30 6 40 0 33 17 17 24 -23 7 -43 25 -52 52 -25
9 8 22 15 30 15 8 0 14 -7 14 -15 0 -8 6 -15 14 -15 8 0 16 17 21 43 6 35 8
38 15 22 5 -11 9 -30 9 -42 1 -13 6 -23 11 -23 6 0 10 -18 10 -40 0 -39 1 -40
35 -40 34 0 35 1 37 43 1 23 4 4 7 -43 6 -81 -1 -141 -7 -72 -3 30 -6 32 -43
32 -28 0 -39 4 -39 15 0 11 -11 15 -40 15 -39 0 -40 -1 -40 -35 0 -34 -1 -35
-40 -35 -33 0 -40 -3 -40 -20 0 -17 7 -20 40 -20 33 0 40 3 40 20 0 17 7 20
40 20 l40 0 0 -40 0 -40 -40 0 -40 0 0 -46 0 -46 -75 7 -75 7 0 -41 c0 -27 4
-41 13 -41 7 0 20 -9 30 -20 12 -15 29 -20 62 -20 41 0 45 2 45 25 0 23 4 25
40 25 29 0 40 4 40 15 0 11 11 15 40 15 29 0 40 -4 40 -15 0 -11 11 -15 40
-15 39 0 40 1 40 35 0 32 -2 35 -30 35 -28 0 -30 2 -30 40 0 31 4 40 17 40 9
0 25 7 34 16 18 16 18 14 12 -35 l-6 -51 42 0 41 0 0 -85 c0 -148 18 -92 24
73 2 86 6 164 7 172 1 8 -2 45 -6 83 l-8 67 27 0 c24 0 26 -4 28 -42 l1 -43 4
39 c4 34 0 44 -33 77 -33 33 -44 39 -81 39 -32 0 -43 -4 -43 -15 0 -25 -96
-21 -112 5 -7 11 -23 20 -36 20 -13 0 -20 4 -17 10 3 6 24 10 46 10 21 0 39
-4 39 -10 0 -18 35 -11 48 10 7 11 17 20 22 20 6 0 10 -9 10 -20 0 -33 17 -22
24 15 9 45 23 45 32 0 8 -43 22 -41 49 8 11 20 25 37 31 37 6 0 14 27 18 61
10 102 11 99 -34 99 l-40 0 0 -40 c0 -22 -4 -40 -9 -40 -5 0 -12 -16 -15 -35
-4 -19 -11 -35 -16 -35 -12 0 -24 61 -13 69 6 3 16 23 22 44 7 20 17 37 22 37
5 0 9 18 9 40 l0 40 40 0 c38 0 40 2 40 29 0 25 -5 31 -32 37 -18 4 -54 6 -80
5 -27 -1 -48 2 -48 6 0 5 18 27 40 48 l40 39 0 -36 c0 -32 3 -36 31 -42 42 -8
49 -8 49 3 0 5 -10 11 -22 13 l-23 3 23 23 c18 18 22 33 22 83 0 41 -5 65 -16
76 -17 17 -16 60 2 83 9 11 9 27 1 63 -10 39 -15 47 -34 47 -15 0 -23 -6 -24
-17 0 -11 -3 -13 -6 -5 -2 6 -17 12 -33 12 -15 0 -42 3 -59 6 -28 6 -31 10
-31 45 0 32 3 39 20 39 11 0 20 -4 20 -10 0 -5 18 -10 40 -10 22 0 40 -4 40
-10 0 -5 18 -10 40 -10 33 0 40 3 40 20 0 14 -7 20 -22 20 l-21 0 21 23 c21
22 22 32 22 200 l0 176 -42 4 -43 4 43 1 42 2 0 235 0 235 -359 0 -360 0 -4
-42 -4 -43 -1 43 -2 42 -1064 0 -1064 0 -15 -22 -16 -23 0 23 c-1 21 -4 22
-95 22 -74 0 -95 -3 -100 -15 -3 -8 -15 -15 -26 -15 -11 0 -20 7 -20 15 0 9
-9 15 -24 15 -20 0 -24 -6 -30 -40 -8 -52 -26 -52 -26 0 l0 40 -1595 0 -1595
0 0 -440z m2610 385 c0 -16 6 -25 15 -25 8 0 15 -4 15 -8 0 -5 18 -18 40 -31
l40 -22 0 30 c0 29 2 31 40 31 35 0 40 -3 41 -22 l0 -23 11 23 c14 28 45 29
53 1 4 -13 10 -17 14 -11 10 16 95 -11 99 -32 8 -41 62 4 62 52 0 8 32 -15 70
-52 39 -36 75 -66 80 -66 6 0 10 -5 10 -10 0 -6 9 -21 21 -33 19 -21 21 -21
33 -4 18 24 26 21 26 -8 0 -30 2 -30 43 -9 21 12 32 13 35 5 2 -6 21 -11 43
-11 32 0 39 -3 39 -20 0 -11 6 -20 13 -20 6 -1 24 -19 39 -40 15 -22 35 -40
43 -40 8 0 15 -4 15 -10 0 -5 19 -19 43 -31 23 -12 45 -26 48 -32 4 -5 16 -8
26 -5 16 4 19 1 15 -18 -4 -22 -1 -24 37 -24 l41 0 0 -40 0 -40 40 0 c36 0 40
3 40 25 0 23 3 25 43 24 l42 -2 -38 -6 -38 -6 35 -34 c21 -20 36 -45 36 -58 0
-20 -5 -23 -40 -23 -33 0 -40 -3 -40 -20 0 -17 -7 -20 -40 -20 -33 0 -40 -3
-40 -20 0 -18 7 -20 80 -20 79 0 80 0 80 25 0 23 4 25 40 25 29 0 40 4 40 15
0 18 12 19 28 3 16 -16 15 -28 -3 -28 -10 0 -15 -11 -16 -37 -1 -21 -5 -49 -9
-63 -8 -24 -8 -24 -9 -2 -1 17 -7 22 -30 22 -27 0 -30 -4 -36 -42 -5 -28 -18
-55 -40 -78 -30 -32 -33 -43 -39 -116 -9 -103 -27 -158 -55 -162 -25 -4 -26
-10 -6 -36 19 -25 19 -46 0 -46 -11 0 -15 -11 -15 -43 0 -36 6 -49 35 -77 20
-19 35 -44 35 -57 0 -20 -5 -23 -40 -23 -22 0 -40 -4 -40 -10 0 -5 -18 -10
-40 -10 -33 0 -40 -3 -40 -20 0 -17 7 -20 40 -20 36 0 40 -2 40 -25 0 -22 -4
-25 -40 -25 -29 0 -40 4 -40 15 0 18 -12 19 -28 3 -16 -16 -15 -28 3 -28 11 0
13 -8 8 -32 -3 -18 -9 -37 -13 -42 -13 -13 -30 3 -30 27 0 12 -5 29 -10 37 -7
11 -10 0 -10 -36 0 -45 -3 -53 -22 -58 -110 -31 -146 -38 -238 -42 -120 -6
-251 -6 -287 1 -38 6 -51 22 -57 73 -9 69 -9 73 -3 122 3 25 6 48 6 51 1 4 15
9 32 13 17 3 43 19 57 36 15 16 34 30 42 30 17 0 70 49 70 66 0 5 12 20 25 33
14 13 25 27 25 32 0 5 6 9 13 9 37 0 67 65 72 155 2 22 8 67 15 99 8 43 9 66
1 83 -6 13 -18 59 -27 101 -9 42 -20 85 -26 96 -16 29 -70 86 -82 86 -6 1 -20
15 -31 33 -11 18 -30 36 -43 42 -12 5 -25 18 -28 28 -5 15 -8 16 -21 5 -12
-10 -17 -9 -24 5 -6 9 -17 17 -25 17 -8 0 -26 11 -40 25 -42 42 -113 55 -219
38 -49 -7 -104 -12 -122 -10 -17 1 -30 0 -28 -4 7 -10 -68 -28 -96 -23 -15 4
-32 0 -40 -9 -8 -8 -24 -17 -36 -21 -11 -4 -28 -15 -38 -26 -10 -11 -26 -20
-36 -20 -10 0 -23 -8 -28 -19 -13 -23 -76 -62 -115 -70 -29 -6 -33 -11 -55
-61 -13 -29 -33 -63 -43 -70 -3 -3 -9 -23 -13 -45 -7 -43 -31 -119 -46 -147
-19 -37 33 -255 68 -284 7 -6 13 -14 13 -18 0 -4 11 -19 25 -34 14 -15 25 -31
25 -36 0 -10 83 -85 114 -103 79 -46 212 -102 261 -109 99 -14 124 -41 125
-136 l0 -67 -36 -7 c-19 -4 -38 -12 -40 -18 -3 -7 -35 -13 -82 -15 -42 -1 -90
-8 -107 -16 -35 -15 -115 -37 -130 -35 -5 1 -36 3 -68 5 -56 4 -59 3 -78 -28
-14 -22 -19 -26 -17 -12 3 18 -2 20 -39 18 -39 -2 -43 0 -43 23 0 27 -34 35
-44 9 -6 -17 -34 -19 -56 -4 -11 8 -12 12 -2 16 7 3 12 23 12 47 0 32 -6 48
-24 65 -14 13 -22 29 -19 37 3 8 -1 14 -11 14 -12 0 -16 -11 -18 -47 l-2 -48
-3 48 c-4 45 -5 47 -36 48 l-32 2 38 10 c57 16 49 41 -17 57 -53 12 -55 14
-61 51 -4 22 -11 39 -16 39 -5 0 -9 17 -10 38 -1 20 -5 48 -9 62 l-8 25 -1
-28 -1 -27 -36 40 c-20 22 -40 37 -46 34 -21 -13 -38 19 -38 75 0 74 -17 204
-19 146 -2 -61 -14 -71 -34 -30 -20 42 -22 79 -4 97 7 7 19 33 26 58 8 25 19
59 26 75 7 17 16 40 20 53 5 16 14 22 37 22 28 0 30 2 22 28 -10 34 -10 70 0
105 7 24 6 27 -15 27 -23 0 -23 1 6 20 18 12 39 18 52 15 32 -8 39 15 38 126
0 54 3 92 7 85 4 -6 8 -25 8 -42 0 -42 30 -135 41 -128 5 3 9 23 9 45 0 22 5
39 11 39 8 0 10 17 7 53 -3 28 -4 57 -1 63 6 17 43 4 44 -15 0 -12 2 -11 9 4
13 31 11 55 -4 55 -26 0 -6 35 32 55 23 12 38 29 40 43 3 19 9 22 50 22 29 0
59 8 80 20 18 11 49 20 69 20 38 0 62 20 63 52 0 19 38 68 52 68 4 0 8 -7 8
-15 0 -11 11 -15 40 -15 29 0 40 4 40 15 0 11 11 15 40 15 29 0 40 -4 40 -15
0 -11 11 -15 40 -15 25 0 40 5 40 13 0 7 9 18 19 24 16 10 19 20 14 48 -4 23
-2 35 6 35 6 0 11 -11 11 -25z m990 0 c0 -14 -4 -25 -10 -25 -11 0 -14 33 -3
43 11 11 13 8 13 -18z m750 -16 c0 -11 -61 -22 -91 -16 -15 2 -7 5 19 6 30 1
42 5 42 16 0 9 6 12 15 9 8 -4 15 -10 15 -15z m-3943 -151 c-2 -13 -4 -3 -4
22 0 25 2 35 4 23 2 -13 2 -33 0 -45z m4150 15 c-3 -10 -5 -2 -5 17 0 19 2 27
5 18 2 -10 2 -26 0 -35z m49 25 c-3 -13 -6 -32 -6 -42 0 -28 -6 -16 -14 27 -6
31 -4 37 10 37 12 0 15 -6 10 -22z m-4000 -55 c-10 -10 -19 5 -10 18 6 11 8
11 12 0 2 -7 1 -15 -2 -18z m3874 -23 c0 -17 -7 -20 -40 -20 -33 0 -40 3 -40
20 0 17 7 20 40 20 33 0 40 -3 40 -20z m-2525 -50 c3 -5 -3 -10 -14 -10 -12 0
-21 5 -21 10 0 6 6 10 14 10 8 0 18 -4 21 -10z m-1315 -26 c0 -14 -3 -14 -15
-4 -8 7 -15 14 -15 16 0 2 7 4 15 4 8 0 15 -7 15 -16z m3760 -4 c0 -17 -7 -20
-40 -20 -33 0 -40 3 -40 20 0 17 7 20 40 20 33 0 40 -3 40 -20z m60 -20 c0
-33 -3 -40 -20 -40 -14 0 -20 7 -20 24 0 13 -3 31 -6 40 -5 12 0 16 20 16 24
0 26 -4 26 -40z m-140 -25 c0 -8 -4 -15 -10 -15 -5 0 -7 7 -4 15 4 8 8 15 10
15 2 0 4 -7 4 -15z m1320 -55 c0 -23 5 -40 11 -40 12 0 8 -94 -5 -107 -11 -11
-13 0 -20 95 -5 63 -4 92 3 92 6 0 11 -18 11 -40z m44 3 c14 -98 18 -203 7
-203 -7 0 -11 28 -11 80 0 47 -4 80 -10 80 -5 0 -10 18 -10 40 0 51 16 52 24
3z m-4162 -27 c4 -17 1 -23 -9 -19 -14 5 -17 25 -6 36 9 10 10 9 15 -17z
m2833 0 c18 -27 11 -53 -16 -61 -10 -4 -19 -13 -19 -21 0 -8 -4 -14 -10 -14
-11 0 -14 103 -3 113 13 14 33 7 48 -17z m1483 -15 c-15 -5 -21 7 -13 26 7 17
8 17 15 -2 4 -11 3 -22 -2 -24z m-258 14 c0 -8 -4 -15 -10 -15 -5 0 -10 7 -10
15 0 8 5 15 10 15 6 0 10 -7 10 -15z m-4220 -74 c0 -16 -7 -34 -16 -42 -10 -8
-13 -21 -9 -36 7 -29 -6 -29 -33 0 -17 19 -19 25 -8 40 7 9 18 17 24 17 5 0
13 11 16 25 9 34 26 32 26 -4z m4185 -1 c18 -19 17 -20 -3 -20 -15 0 -22 6
-22 20 0 11 2 20 3 20 2 0 12 -9 22 -20z m-4025 -57 c0 -24 -4 -43 -10 -43 -5
0 -10 18 -10 40 0 23 -5 40 -11 40 -8 0 -7 5 1 15 18 22 30 2 30 -52z m2880
47 c0 -5 -5 -10 -11 -10 -5 0 -7 5 -4 10 3 6 8 10 11 10 2 0 4 -4 4 -10z m552
-45 c-4 -40 -7 -45 -28 -45 -21 0 -24 4 -24 39 0 36 3 40 28 44 15 2 27 5 27
6 0 0 -1 -19 -3 -44z m-3782 -5 c0 -22 -4 -40 -10 -40 -5 0 -10 18 -10 40 0
22 5 40 10 40 6 0 10 -18 10 -40z m560 20 c0 -11 -4 -20 -10 -20 -5 0 -10 9
-10 20 0 11 5 20 10 20 6 0 10 -9 10 -20z m4110 5 c0 -17 -2 -18 -24 -9 -23 9
-20 24 4 24 11 0 20 -7 20 -15z m-320 -45 c0 -11 -7 -20 -15 -20 -17 0 -18 2
-9 24 9 23 24 20 24 -4z m-487 -17 c-13 -2 -35 -2 -50 0 -16 2 -5 4 22 4 28 0
40 -2 28 -4z m-3923 -22 c-13 -25 -13 -61 0 -61 6 0 10 -7 10 -15 0 -11 -11
-15 -40 -15 -36 0 -40 -2 -40 -25 0 -23 3 -25 49 -25 46 0 49 1 55 31 7 38 26
29 26 -13 0 -48 -25 -68 -82 -68 -26 0 -48 5 -48 10 0 6 -18 10 -40 10 l-40 0
0 -62 c-1 -46 -3 -58 -10 -46 -6 9 -24 19 -40 23 -27 6 -30 10 -30 46 0 39 0
39 39 39 34 0 39 3 49 33 5 17 10 24 11 15 2 -29 21 -20 22 10 l1 27 13 -30
14 -30 1 29 c0 43 50 136 72 136 15 0 17 -4 8 -19z m346 -21 c5 -31 11 -40 26
-40 16 0 19 -5 14 -22 -3 -13 -6 -26 -6 -30 0 -21 -19 -4 -25 22 -5 21 -13 30
-26 30 -16 0 -19 7 -19 40 0 29 4 40 15 40 10 0 17 -14 21 -40z m3004 21 c-5
-11 -10 -28 -10 -39 0 -10 -11 -29 -25 -42 -14 -13 -25 -32 -25 -42 0 -10 -5
-18 -11 -18 -18 0 -3 66 20 89 12 12 21 32 21 46 0 18 5 25 20 25 17 0 19 -3
10 -19z m707 -43 c-2 -13 -4 -3 -4 22 0 25 2 35 4 23 2 -13 2 -33 0 -45z m390
0 c-2 -13 -4 -3 -4 22 0 25 2 35 4 23 2 -13 2 -33 0 -45z m-863 30 c10 -38 7
-48 -14 -48 -11 0 -20 6 -20 13 0 23 12 57 20 57 4 0 10 -10 14 -22z m784 -31
c2 -12 -3 -17 -17 -17 -15 0 -21 6 -21 21 0 25 33 22 38 -4z m226 7 c9 -22 8
-24 -9 -24 -8 0 -15 9 -15 20 0 24 15 27 24 4z m-5384 -40 c0 -21 -4 -33 -10
-29 -17 10 -11 65 7 65 2 0 3 -16 3 -36z m4240 -24 c0 -22 -4 -40 -10 -40 -5
0 -10 18 -10 40 0 22 5 40 10 40 6 0 10 -18 10 -40z m652 28 c-9 -9 -15 -9
-24 0 -9 9 -7 12 12 12 19 0 21 -3 12 -12z m-2393 -8 c65 -11 184 -67 208 -99
7 -9 13 -26 13 -37 0 -12 6 -37 14 -55 18 -45 27 -109 15 -109 -5 0 -9 -7 -9
-15 0 -8 -9 -19 -20 -25 -11 -6 -23 -23 -26 -38 -4 -15 -23 -43 -43 -63 -20
-20 -49 -53 -66 -73 -29 -35 -76 -61 -105 -58 -8 1 -41 2 -72 3 -32 0 -60 5
-63 10 -4 5 -19 9 -35 9 -16 0 -36 7 -44 16 -9 9 -32 20 -51 25 -20 6 -55 29
-78 52 -24 23 -52 48 -63 55 -13 9 -15 14 -7 18 10 4 10 11 2 26 -7 13 -9 41
-5 72 4 28 9 62 10 76 4 38 5 40 19 40 11 0 47 34 47 45 0 2 17 22 38 43 34
36 51 44 167 81 40 13 78 13 154 1z m3181 -55 c0 -26 -3 -33 -15 -29 -16 6
-19 22 -9 48 11 28 24 17 24 -19z m-5280 0 c0 -25 -1 -25 -80 -25 -79 0 -80 0
-80 25 0 25 1 25 80 25 79 0 80 0 80 -25z m160 5 c0 -5 -18 -10 -40 -10 -22 0
-40 5 -40 10 0 6 18 10 40 10 22 0 40 -4 40 -10z m4255 0 c3 -5 1 -10 -4 -10
-6 0 -11 5 -11 10 0 6 2 10 4 10 3 0 8 -4 11 -10z m135 -119 c-21 -41 -13 -51
40 -51 28 0 50 5 50 10 0 6 18 10 40 10 34 0 40 -3 40 -21 0 -21 -3 -22 -61
-15 -34 3 -89 7 -123 7 -34 1 -51 4 -40 6 19 4 21 9 17 44 -5 35 -3 39 16 39
20 0 22 5 21 43 -3 65 3 69 7 5 2 -32 -1 -66 -7 -77z m451 69 l39 0 0 -65 0
-65 -40 0 c-39 0 -40 -1 -40 -35 0 -19 -4 -35 -10 -35 -5 0 -10 -18 -10 -40 0
-22 5 -40 10 -40 6 0 10 -9 10 -20 0 -17 -7 -20 -40 -20 -36 0 -40 -2 -40 -25
0 -22 -4 -25 -39 -25 -39 0 -40 -1 -44 -37 l-4 -38 -1 43 c-1 23 -6 42 -11 42
-5 0 -12 11 -15 25 -4 14 -10 25 -14 25 -4 0 -13 4 -21 9 -11 7 -7 16 19 45
36 39 50 45 50 21 0 -11 11 -15 40 -15 36 0 40 3 40 25 0 15 6 25 14 25 33 0
51 141 27 203 -14 37 -15 35 12 39 16 2 23 -3 25 -19 3 -19 9 -23 43 -23z
m-4361 25 c0 -11 -11 -15 -40 -15 -29 0 -40 4 -40 15 0 11 11 15 40 15 29 0
40 -4 40 -15z m80 -1 c0 -14 -3 -14 -15 -4 -8 7 -15 14 -15 16 0 2 7 4 15 4 8
0 15 -7 15 -16z m136 -11 c3 -16 7 -34 10 -40 2 -9 -7 -13 -26 -13 -19 0 -28
4 -26 13 3 6 7 24 10 40 4 15 11 27 16 27 5 0 12 -12 16 -27z m2871 -50 c-2
-16 -4 -3 -4 27 0 30 2 43 4 28 2 -16 2 -40 0 -55z m1056 70 c-13 -2 -33 -2
-45 0 -13 2 -3 4 22 4 25 0 35 -2 23 -4z m-435 -45 c18 -18 15 -28 -8 -28 -26
0 -26 -27 0 -48 15 -13 20 -31 21 -82 1 -36 -2 -75 -6 -87 -6 -18 -3 -22 22
-26 21 -3 17 -4 -14 -6 l-43 -1 0 45 c0 38 -3 45 -20 45 -17 0 -20 7 -20 40 0
29 4 40 15 40 10 0 15 10 15 29 0 39 11 91 19 91 4 0 12 -5 19 -12z m-4588
-28 c0 -17 -7 -20 -40 -20 -22 0 -40 5 -40 10 0 6 -18 10 -40 10 -22 0 -40 5
-40 10 0 6 33 10 80 10 73 0 80 -2 80 -20z m5840 10 c0 -5 -18 -10 -40 -10
-22 0 -40 5 -40 10 0 6 18 10 40 10 22 0 40 -4 40 -10z m-1520 -40 l0 -40 43
-1 42 -2 -40 -6 c-22 -3 -60 -4 -83 -2 l-44 3 38 39 38 39 -37 0 c-20 0 -37
-5 -37 -11 0 -5 -5 -7 -11 -3 -18 11 11 24 54 24 37 0 37 0 37 -40z m-222 -50
c10 0 23 9 30 20 7 11 22 20 33 20 12 0 23 -8 26 -20 3 -11 9 -20 14 -20 13 0
11 -27 -2 -35 -6 -4 -13 3 -16 14 -4 14 -11 20 -22 17 -29 -9 -91 -11 -91 -3
0 4 1 26 2 50 l1 42 4 -42 c3 -32 8 -43 21 -43z m990 38 c6 -26 4 -37 -12 -55
-24 -28 -38 -29 -61 -3 -18 20 -17 20 12 20 27 0 32 4 37 35 8 43 13 44 24 3z
m-5376 -5 c25 -22 23 -33 -7 -33 -20 0 -25 5 -25 25 0 29 7 31 32 8z m683
-141 c-11 -11 -17 9 -17 61 -1 84 16 95 20 13 2 -37 0 -71 -3 -74z m3380 118
c3 -5 1 -10 -4 -10 -6 0 -11 -9 -11 -20 0 -18 -7 -20 -80 -20 -61 0 -80 3 -80
14 0 9 -24 16 -82 23 -80 10 -78 10 40 5 88 -4 122 -2 122 6 0 15 86 16 95 2z
m-3935 -26 c0 -14 -3 -14 -15 -4 -8 7 -15 14 -15 16 0 2 7 4 15 4 8 0 15 -7
15 -16z m630 -46 c0 -10 -7 -18 -16 -18 -11 0 -14 5 -10 16 3 9 6 23 6 32 0
15 2 15 10 2 5 -8 10 -23 10 -32z m220 27 c0 -8 -4 -15 -10 -15 -5 0 -10 7
-10 15 0 8 5 15 10 15 6 0 10 -7 10 -15z m-1062 -28 c7 -8 7 -17 -2 -30 -16
-21 -26 -22 -26 -2 0 8 -8 15 -17 15 -16 1 -16 2 1 15 24 18 31 19 44 2z m72
-2 c0 -8 -4 -15 -10 -15 -5 0 -10 7 -10 15 0 8 5 15 10 15 6 0 10 -7 10 -15z
m320 0 c10 -12 10 -15 -4 -15 -9 0 -16 7 -16 15 0 8 2 15 4 15 2 0 9 -7 16
-15z m3995 -5 c3 -5 1 -10 -4 -10 -6 0 -11 5 -11 10 0 6 2 10 4 10 3 0 8 -4
11 -10z m-495 -20 c0 -11 -7 -20 -15 -20 -8 0 -15 6 -15 14 0 8 -12 17 -27 19
-20 3 -15 4 15 6 36 1 42 -2 42 -19z m1200 0 c0 -17 7 -20 39 -20 23 0 48 -8
61 -18 l23 -18 -25 -47 -25 -46 -34 35 c-18 19 -35 30 -37 24 -5 -15 -32 -12
-38 5 -4 8 -13 15 -21 15 -11 0 -12 8 -7 36 5 26 3 39 -7 45 -9 6 0 9 29 9 35
0 42 -3 42 -20z m-4856 -14 c3 -13 9 -31 12 -40 5 -12 0 -16 -19 -16 -18 0
-28 -8 -37 -30 -16 -39 -23 -38 -43 5 -28 59 -23 75 23 75 29 0 40 4 40 15 0
24 17 17 24 -9z m246 -16 c0 -36 3 -40 25 -40 18 0 25 -5 25 -20 0 -17 -7 -20
-40 -20 -33 0 -40 3 -40 20 0 11 -4 20 -10 20 -15 0 -12 38 3 43 9 3 9 7 -2
20 -12 15 -11 17 13 17 24 0 26 -4 26 -40z m180 2 c0 -28 -7 -45 -25 -62 l-25
-23 0 21 c0 13 6 22 15 22 11 0 15 11 15 40 0 22 5 40 10 40 6 0 10 -17 10
-38z m410 -2 c0 -30 -4 -40 -16 -40 -12 0 -15 6 -10 23 3 12 6 30 6 40 0 9 5
17 10 17 6 0 10 -18 10 -40z m3720 13 c0 -16 -5 -35 -10 -43 -7 -11 -10 -4
-10 28 0 23 5 42 10 42 6 0 10 -12 10 -27z m1347 5 c-3 -8 -6 -5 -6 6 -1 11 2
17 5 13 3 -3 4 -12 1 -19z m53 0 c0 -19 -2 -20 -10 -8 -13 19 -13 30 0 30 6 0
10 -10 10 -22z m-2060 -37 c0 -16 8 -21 43 -24 23 -2 3 -4 -44 -5 l-86 -2 5
25 c4 22 10 25 43 25 32 0 39 -4 39 -19z m530 -1 c0 -11 -4 -20 -10 -20 -5 0
-10 9 -10 20 0 11 5 20 10 20 6 0 10 -9 10 -20z m612 -43 c-12 -13 -22 -31
-22 -40 0 -9 -4 -17 -10 -17 -13 0 -13 23 2 55 6 15 19 25 31 25 20 0 20 0 -1
-23z m375 -44 c-2 -16 -4 -5 -4 22 0 28 2 40 4 28 2 -13 2 -35 0 -50z m483 22
l0 -45 -40 0 -40 0 0 -56 c0 -40 -3 -55 -12 -51 -7 2 -13 11 -12 20 0 10 1 35
2 57 l2 40 45 0 45 0 0 40 c0 22 2 40 5 40 3 0 5 -20 5 -45z m-2190 -15 c0
-11 -4 -20 -10 -20 -5 0 -10 9 -10 20 0 11 5 20 10 20 6 0 10 -9 10 -20z m911
-2 c3 -54 -5 -68 -27 -47 -12 13 -13 20 -3 42 15 33 29 35 30 5z m173 -7 c3
-5 -1 -11 -9 -14 -9 -4 -12 -1 -8 9 6 16 10 17 17 5z m1186 -27 c0 -17 -22
-14 -28 4 -2 7 3 12 12 12 9 0 16 -7 16 -16z m-6059 -64 c24 0 24 -12 -1 -41
l-19 -24 -1 23 c0 12 -6 22 -14 22 -25 0 -29 20 -9 42 l18 20 3 -21 c2 -13 11
-21 23 -21z m5179 15 c0 -8 9 -15 20 -15 23 0 26 -10 8 -28 -18 -18 -28 -15
-28 8 0 13 -7 20 -20 20 -22 0 -27 15 -7 23 21 9 27 7 27 -8z m828 -3 c2 -7
-3 -12 -12 -12 -9 0 -16 7 -16 16 0 17 22 14 28 -4z m-1539 -6 c-11 -9 -249
-15 -249 -6 0 6 50 10 127 10 69 0 124 -2 122 -4z m-4344 -33 c-8 -34 -11 -37
-24 -28 -6 3 -11 17 -11 31 0 18 5 24 21 24 18 0 20 -4 14 -27z m631 7 c-20
-70 -18 -68 -32 -30 -17 49 -17 50 12 50 21 0 24 -4 20 -20z m3141 -12 c-3 -7
-5 -2 -5 12 0 14 2 19 5 13 2 -7 2 -19 0 -25z m650 -30 c-2 -13 -4 -3 -4 22 0
25 2 35 4 23 2 -13 2 -33 0 -45z m158 -23 c-4 -42 -10 -74 -12 -71 -3 3 -2 39
2 81 4 42 9 74 12 71 3 -2 2 -39 -2 -81z m-1038 13 c-3 -7 -5 -2 -5 12 0 14 2
19 5 13 2 -7 2 -19 0 -25z m69 -27 c-5 -44 -3 -60 6 -64 7 -3 9 -6 3 -6 -20
-1 -32 15 -39 52 -6 30 -4 37 9 37 8 0 15 9 15 20 0 11 3 20 6 20 4 0 4 -27 0
-59z m274 44 c18 -21 11 -25 -54 -32 -39 -4 -56 -2 -56 6 0 6 17 11 40 11 29
0 40 4 40 15 0 19 14 19 30 0z m1518 3 c18 -18 15 -28 -8 -28 -19 0 -20 -7
-20 -114 l0 -114 80 -7 80 -7 0 -42 0 -42 -40 4 c-38 4 -40 6 -40 37 0 32 0
32 -61 39 -34 3 -88 6 -120 6 l-59 0 0 -40 0 -40 -40 0 -40 0 0 -40 c0 -39 -1
-40 -35 -40 -34 0 -35 -1 -35 -40 0 -29 -4 -40 -15 -40 -11 0 -15 11 -15 40 0
33 -3 40 -20 40 -17 0 -20 -7 -20 -39 0 -43 -10 -51 -66 -51 l-34 0 0 64 c0
34 -3 91 -6 125 -7 61 -7 61 20 61 24 0 26 3 26 40 0 22 -4 40 -10 40 -5 0
-10 18 -10 40 0 36 3 40 25 40 22 0 25 -4 25 -38 l0 -37 45 3 45 4 0 39 c0 39
0 39 40 39 l40 0 0 -45 c0 -43 1 -45 30 -45 28 0 30 2 30 39 0 22 -5 41 -11
43 -9 3 -8 14 2 41 12 34 29 50 29 27 0 -5 18 -10 40 -10 22 0 40 5 40 10 0 6
-9 10 -20 10 -23 0 -26 10 -8 28 16 16 120 16 136 0z m115 -25 c-13 -2 -33 -2
-45 0 -13 2 -3 4 22 4 25 0 35 -2 23 -4z m-4965 -20 c-4 -22 -22 -20 -26 1 -2
10 3 16 13 16 10 0 15 -7 13 -17z m639 -45 c-2 -13 -4 -3 -4 22 0 25 2 35 4
23 2 -13 2 -33 0 -45z m2992 15 c-1 -53 -6 -49 -11 10 -2 20 0 37 4 37 4 0 8
-21 7 -47z m624 40 c-7 -2 -19 -2 -25 0 -7 3 -2 5 12 5 14 0 19 -2 13 -5z m84
-55 c-2 -13 -4 -3 -4 22 0 25 2 35 4 23 2 -13 2 -33 0 -45z m-3997 2 c0 -18
-7 -20 -55 -20 -30 0 -55 2 -55 4 0 17 38 36 71 36 32 0 39 -3 39 -20z m2800
-5 c0 -8 -7 -15 -15 -15 -26 0 -18 20 13 29 1 1 2 -6 2 -14z m2080 0 c0 -11
12 -15 43 -16 25 -1 33 -4 18 -6 -37 -7 -91 6 -91 22 0 8 7 15 15 15 8 0 15
-7 15 -15z m-5120 -25 c0 -5 -2 -10 -4 -10 -3 0 -8 5 -11 10 -3 6 -1 10 4 10
6 0 11 -4 11 -10z m4081 -30 c64 0 79 -3 79 -15 0 -11 11 -15 40 -15 22 0 40
-4 40 -10 0 -6 -33 -10 -80 -10 -64 0 -80 -3 -80 -15 0 -12 -16 -15 -80 -15
-76 0 -80 1 -80 22 0 12 17 39 38 61 33 34 37 36 40 18 3 -19 10 -21 83 -21z
m799 0 l0 -40 -42 0 -42 0 39 40 c21 22 40 40 42 40 2 0 3 -18 3 -40z m-4720
-20 c0 -14 7 -20 21 -20 12 0 19 -5 16 -12 -2 -7 -14 -13 -27 -12 -15 1 -28
-9 -39 -27 -22 -40 -33 -36 -25 9 11 63 54 112 54 62z m2963 0 c4 -15 14 -20
41 -20 35 0 36 -1 36 -40 0 -34 3 -40 22 -40 20 0 21 -1 3 -20 -13 -14 -31
-20 -62 -20 -36 0 -43 -3 -43 -20 0 -17 7 -20 40 -20 l40 0 0 -40 0 -40 -54 0
-54 0 14 -47 c16 -52 18 -93 6 -93 -5 0 -17 10 -28 22 -10 12 -13 18 -7 14 9
-5 11 -2 7 8 -3 9 -13 16 -21 16 -12 0 -14 7 -8 33 4 17 8 44 9 60 1 15 3 36
4 47 1 13 9 20 22 20 15 0 20 7 20 28 0 15 3 51 6 80 6 44 4 52 -10 52 -18 0
-19 2 -10 24 8 22 21 20 27 -4z m1997 1 c0 -15 9 -21 38 -24 20 -2 13 -3 -17
-1 -61 3 -69 8 -51 29 17 21 30 19 30 -4z m-5250 -42 c0 -10 -4 -20 -9 -24 -5
-3 -12 -19 -16 -36 -5 -24 -2 -36 16 -55 24 -25 59 -32 59 -11 0 8 4 7 10 -3
11 -18 11 -94 0 -130 -6 -20 -8 -15 -9 25 -2 46 -5 52 -37 73 -20 12 -42 22
-49 22 -12 0 -14 16 -11 83 2 45 4 83 5 84 0 0 10 -1 21 -4 11 -3 20 -14 20
-24z m3658 -25 l-3 -39 -5 47 c-3 26 -1 43 3 39 5 -5 7 -26 5 -47z m-30 29
c-4 -22 -22 -20 -26 1 -2 10 3 16 13 16 10 0 15 -7 13 -17z m1542 -3 c0 -17 7
-20 40 -20 33 0 40 -3 40 -20 0 -17 7 -20 43 -22 l42 -1 -42 -4 c-29 -3 -43
-9 -43 -19 0 -10 -12 -14 -39 -14 -33 0 -40 -4 -45 -22 -3 -13 -3 4 -1 37 4
52 1 62 -15 73 -26 16 -26 32 0 32 13 0 20 -7 20 -20z m-1232 -88 c-1 -47 -2
-50 -5 -17 -3 22 -9 43 -15 46 -6 4 -8 14 -5 24 13 32 27 3 25 -53z m1150 1
c-1 -57 -2 -60 -5 -20 -3 33 -8 47 -19 47 -17 0 -18 12 -2 28 23 23 28 12 26
-55z m-4903 37 c3 -5 1 -10 -4 -10 -6 0 -11 5 -11 10 0 6 2 10 4 10 3 0 8 -4
11 -10z m2772 -6 c-3 -3 -12 -4 -19 -1 -8 3 -5 6 6 6 11 1 17 -2 13 -5z
m-2827 -20 c0 -9 -7 -14 -17 -12 -25 5 -28 28 -4 28 12 0 21 -6 21 -16z m300
-24 c0 -22 5 -40 10 -40 6 0 10 -9 10 -20 0 -24 -8 -25 -38 -4 -17 12 -22 25
-22 60 0 37 3 44 20 44 17 0 20 -7 20 -40z m2420 19 c0 -17 -4 -20 -22 -15
-13 3 -31 6 -40 6 -10 0 -18 7 -18 15 0 11 11 15 40 15 34 0 40 -3 40 -21z
m303 14 c-13 -2 -33 -2 -45 0 -13 2 -3 4 22 4 25 0 35 -2 23 -4z m1067 -31 c0
-31 -7 -45 -43 -80 -24 -24 -52 -42 -65 -42 -21 0 -22 4 -22 80 l0 80 65 0 65
0 0 -38z m-3871 -59 c0 -17 -17 -64 -18 -53 -1 3 -5 20 -10 38 -9 28 -7 32 10
32 12 0 19 -7 18 -17z m2489 10 c-10 -2 -26 -2 -35 0 -10 3 -2 5 17 5 19 0 27
-2 18 -5z m969 -25 c-3 -7 -5 -2 -5 12 0 14 2 19 5 13 2 -7 2 -19 0 -25z
m1050 0 c-3 -7 -5 -2 -5 12 0 14 2 19 5 13 2 -7 2 -19 0 -25z m-1797 -28 c0
-11 -4 -20 -10 -20 -5 0 -10 9 -10 20 0 11 5 20 10 20 6 0 10 -9 10 -20z
m-2147 -27 c-13 -2 -33 -2 -45 0 -13 2 -3 4 22 4 25 0 35 -2 23 -4z m1967 -3
c0 -5 -7 -10 -15 -10 -8 0 -15 5 -15 10 0 6 7 10 15 10 8 0 15 -4 15 -10z
m1060 -47 c1 -32 7 -69 15 -83 27 -47 20 -60 -33 -60 -44 0 -72 12 -72 32 0 4
16 8 36 8 35 0 36 1 29 28 -4 15 -9 51 -12 80 -4 48 -3 52 16 52 19 0 21 -6
21 -57z m350 17 c0 -33 -3 -40 -20 -40 -17 0 -20 7 -20 40 0 33 3 40 20 40 17
0 20 -7 20 -40z m557 -22 c-2 -13 -4 -3 -4 22 0 25 2 35 4 23 2 -13 2 -33 0
-45z m-1512 -22 c4 -24 5 -52 2 -62 -3 -11 -5 0 -6 24 l-1 42 -40 0 c-33 0
-40 3 -40 20 0 17 7 20 39 20 39 0 40 -1 46 -44z m-3070 -6 c-3 -5 -10 -10
-16 -10 -5 0 -9 5 -9 10 0 6 7 10 16 10 8 0 12 -4 9 -10z m2879 4 c20 -8 21
-24 2 -24 -8 0 -16 7 -20 15 -6 17 -4 18 18 9z m416 -34 c0 -22 -4 -40 -10
-40 -5 0 -10 18 -10 40 0 22 5 40 10 40 6 0 10 -18 10 -40z m-2790 -20 c0 -11
-7 -20 -15 -20 -17 0 -18 2 -9 24 9 23 24 20 24 -4z m3600 0 c0 -11 -7 -20
-15 -20 -17 0 -18 2 -9 24 9 23 24 20 24 -4z m-4105 -10 c3 -5 -1 -10 -9 -10
-9 0 -16 5 -16 10 0 6 4 10 9 10 6 0 13 -4 16 -10z m905 0 c0 -5 -5 -10 -11
-10 -5 0 -7 5 -4 10 3 6 8 10 11 10 2 0 4 -4 4 -10z m3743 -7 c-13 -2 -33 -2
-45 0 -13 2 -3 4 22 4 25 0 35 -2 23 -4z m-5683 -43 c0 -22 -4 -40 -10 -40 -5
0 -10 18 -10 40 0 22 5 40 10 40 6 0 10 -18 10 -40z m989 18 c-1 -17 -3 -18
-6 -6 -3 12 -17 18 -46 21 l-42 4 48 1 c43 2 47 0 46 -20z m116 0 l40 -3 -47
-5 c-43 -5 -48 -3 -48 15 0 13 3 16 8 8 4 -6 25 -13 47 -15z m2975 13 c0 -24
-47 -35 -66 -16 -21 21 -17 25 26 25 22 0 40 -4 40 -9z m80 -10 c0 -11 -5 -23
-10 -26 -6 -4 -8 -12 -4 -18 3 -7 -2 -3 -10 7 -23 28 -20 56 4 56 13 0 20 -7
20 -19z m303 12 c-24 -2 -62 -2 -85 0 -24 2 -5 4 42 4 47 0 66 -2 43 -4z
m1707 0 c0 -5 -5 -15 -10 -23 -8 -12 -10 -11 -10 8 0 12 5 22 10 22 6 0 10 -3
10 -7z m-4630 -53 c0 -13 -7 -20 -20 -20 -23 0 -26 10 -8 28 18 18 28 15 28
-8z m-543 -12 c-3 -8 -6 -5 -6 6 -1 11 2 17 5 13 3 -3 4 -12 1 -19z m3183 -28
c0 -11 -4 -20 -10 -20 -5 0 -10 2 -10 4 0 2 -3 11 -6 20 -4 11 -1 16 10 16 9
0 16 -8 16 -20z m-1115 -10 c132 -6 273 -15 313 -21 94 -14 267 -73 302 -104
8 -8 19 -14 23 -14 19 0 129 -75 187 -128 117 -105 148 -138 168 -176 11 -21
30 -48 43 -61 51 -51 109 -145 143 -236 20 -52 54 -132 77 -176 54 -108 98
-283 120 -484 13 -114 4 -392 -16 -505 -33 -189 -44 -228 -84 -299 -30 -52
-143 -184 -159 -185 -7 -1 -15 -8 -18 -16 -3 -8 -14 -17 -24 -20 -11 -3 -22
-14 -25 -23 -3 -9 -20 -24 -38 -33 -17 -9 -68 -35 -111 -58 -44 -22 -86 -41
-93 -41 -7 0 -13 -3 -13 -8 0 -11 -68 -33 -133 -42 -32 -4 -61 -10 -64 -13 -3
-3 -16 -1 -30 4 -17 6 -30 6 -39 -2 -7 -6 -18 -7 -25 -3 -6 4 -41 8 -77 10
-37 1 -68 8 -72 15 -4 6 -19 13 -33 14 -54 6 -60 35 -7 35 16 0 31 4 35 9 10
17 -19 26 -75 24 l-55 -3 45 17 45 17 -37 10 c-44 11 -50 31 -13 40 21 5 24
10 15 26 -5 10 -10 28 -10 39 0 16 -6 21 -25 21 -23 0 -25 4 -25 45 0 36 -5
48 -25 61 -13 8 -28 13 -33 10 -5 -3 -46 -10 -91 -15 -81 -9 -196 2 -313 30
-26 6 -53 9 -60 7 -16 -6 -41 19 -33 32 10 16 76 30 143 30 72 0 196 16 229
30 12 5 80 21 150 35 71 14 146 34 169 45 23 11 46 20 51 20 6 0 45 16 88 36
57 26 80 33 85 24 16 -25 32 2 27 43 -10 71 -25 78 -183 84 -144 5 -261 28
-294 58 -9 8 -24 15 -33 15 -9 0 -18 4 -22 9 -5 8 -106 8 -265 -1 -14 -1 -51
-1 -83 0 -55 2 -59 4 -79 38 -15 26 -26 34 -40 30 -49 -12 -59 31 -19 79 10
11 25 33 35 49 13 21 20 25 26 16 11 -18 51 20 52 51 1 13 10 33 20 45 13 15
38 99 38 130 0 2 -8 4 -18 4 -11 0 -19 8 -20 18 -5 48 -1 106 8 123 8 14 7 19
-3 19 -7 0 -24 18 -37 40 -14 22 -33 42 -43 45 -9 4 -21 15 -27 25 -8 15 -18
17 -50 13 -36 -5 -40 -4 -33 12 5 14 3 17 -10 12 -9 -3 -19 -2 -22 3 -4 6 3
10 14 10 12 0 21 5 21 10 0 6 -7 10 -15 10 -8 0 -15 7 -15 15 0 18 -41 20 -58
3 -9 -9 -16 -7 -31 6 -12 11 -29 16 -41 13 -11 -3 -20 -2 -20 2 0 4 -25 6 -55
3 -37 -3 -55 -1 -55 7 0 22 -85 12 -124 -14 -39 -26 -61 -31 -70 -16 -4 5 -17
0 -30 -12 -20 -18 -22 -23 -10 -35 8 -7 12 -18 9 -23 -9 -14 -35 -11 -35 4 0
7 -13 23 -30 35 -26 20 -30 20 -38 6 -13 -23 -42 53 -42 109 l0 42 -19 -24
c-22 -28 -27 -22 -36 47 -4 28 -11 52 -16 52 -11 0 -12 41 0 59 13 21 -10 71
-34 72 -151 8 -138 3 -119 47 8 20 17 46 20 56 2 11 18 33 37 50 18 17 46 49
62 71 59 78 117 133 172 161 31 15 70 41 87 56 17 16 53 35 80 43 27 8 54 19
60 24 6 4 49 21 96 36 47 15 98 34 115 42 16 8 77 21 135 29 58 8 123 18 145
23 56 12 70 12 340 1z m-2477 -30 c2 -14 -1 -20 -5 -14 -4 6 -16 13 -26 17
-22 8 -12 29 11 25 10 -2 18 -14 20 -28z m69 -12 c-3 -7 -5 -2 -5 12 0 14 2
19 5 13 2 -7 2 -19 0 -25z m323 -23 l0 -55 38 0 37 0 -3 -45 c-4 -40 -7 -45
-28 -45 -21 0 -24 4 -24 41 0 33 -3 40 -16 35 -9 -3 -31 -6 -49 -6 -32 0 -34
-2 -38 -37 l-4 -38 -1 43 -2 42 -76 0 -76 0 2 -42 c1 -24 1 -49 1 -55 -1 -18
-31 -16 -31 1 0 12 -19 13 -102 9 -57 -3 -105 -9 -108 -13 -3 -4 -27 -10 -54
-12 -41 -5 -49 -3 -53 13 -3 10 -15 20 -27 22 -11 3 5 3 37 1 l57 -4 0 40 0
40 60 0 c46 0 60 -3 60 -15 0 -18 47 -65 65 -65 11 0 15 12 15 40 l0 40 40 0
40 0 0 40 0 40 40 0 c39 0 40 -1 40 -35 0 -34 1 -35 40 -35 l40 0 0 55 0 55
40 0 40 0 0 -55z m677 31 c22 -25 20 -36 -4 -36 -8 0 -11 5 -8 10 3 6 -1 10
-9 10 -9 0 -16 9 -16 20 0 27 12 25 37 -4z m-1237 -36 c0 -17 -7 -20 -40 -20
-33 0 -40 3 -40 20 0 17 7 20 40 20 33 0 40 -3 40 -20z m840 11 c0 -6 -9 -16
-20 -24 -18 -13 -19 -20 -12 -76 5 -34 5 -64 0 -67 -4 -3 -8 8 -8 23 0 17 -8
33 -20 41 -24 14 -26 32 -5 32 19 0 19 9 0 34 -25 34 -18 46 25 46 22 0 40 -4
40 -9z m4760 -51 c0 -17 -7 -20 -40 -20 -33 0 -40 3 -40 20 0 17 7 20 40 20
33 0 40 -3 40 -20z m-4590 -10 c24 -8 23 -8 -7 -9 l-33 -1 -1 -57 c-1 -105
-11 -142 -29 -113 -13 20 -12 26 3 42 9 9 12 29 10 57 -5 54 3 91 20 90 6 -1
23 -5 37 -9z m3078 -6 c18 -5 22 -13 22 -45 0 -28 -4 -39 -15 -39 -8 0 -15 -9
-15 -19 0 -13 -6 -19 -19 -18 -11 0 -19 4 -19 7 0 3 0 12 -1 20 -1 13 -2 13
-11 0 -6 -10 -10 -11 -10 -2 0 8 -18 13 -52 14 -51 1 -51 2 -10 5 42 4 42 4
42 44 0 37 1 39 33 39 17 0 42 -3 55 -6z m-2938 -39 c0 -8 -7 -15 -15 -15 -16
0 -20 12 -8 23 11 12 23 8 23 -8z m-1309 -85 l-3 -40 41 0 c23 0 41 5 41 11 0
5 5 7 12 3 9 -6 9 -9 0 -12 -7 -2 -12 -10 -12 -17 0 -19 47 -65 65 -65 8 0 15
-6 15 -13 0 -7 6 -25 13 -40 11 -25 16 -27 75 -27 l62 0 0 40 c0 22 5 40 10
40 7 0 8 -35 4 -105 l-7 -105 42 0 c30 0 41 -4 41 -15 0 -12 -16 -15 -80 -15
-73 0 -80 2 -80 20 0 17 -7 20 -40 20 -33 0 -40 -3 -40 -20 0 -13 -7 -20 -20
-20 -17 0 -20 7 -20 40 0 33 -3 40 -20 40 -18 0 -20 -7 -20 -80 l0 -80 -60 0
-60 0 0 40 c0 33 -3 40 -20 40 -17 0 -20 7 -20 41 l0 41 -82 -5 -83 -5 83 10
84 11 -4 36 c-3 35 -2 37 23 33 21 -3 29 1 34 17 3 12 11 21 16 21 11 0 0 114
-13 118 -13 6 -9 80 5 85 18 7 21 0 18 -43z m1273 15 c-24 -18 -34 -19 -34 -1
0 8 10 16 23 18 31 5 34 0 11 -17z m2786 21 c0 -3 -4 -8 -10 -11 -5 -3 -10 -1
-10 4 0 6 5 11 10 11 6 0 10 -2 10 -4z m-4204 -49 c22 -13 16 -27 -11 -27 -27
0 -28 2 -18 40 4 16 8 20 11 10 3 -8 11 -19 18 -23z m944 -48 c0 -16 -7 -19
-40 -19 l-40 0 0 -40 0 -40 40 0 c29 0 40 -4 40 -15 0 -11 12 -16 43 -17 l42
-1 -42 -4 c-35 -3 -43 -8 -43 -24 0 -16 -7 -19 -40 -19 -33 0 -40 3 -40 20 0
17 -7 20 -39 20 -39 0 -40 -1 -44 -37 -2 -21 -3 -10 0 25 2 35 0 68 -4 75 -6
11 -5 85 2 97 2 3 39 4 84 2 72 -3 81 -6 81 -23z m-1055 -121 c6 -15 2 -18
-20 -18 -22 0 -26 3 -20 18 4 9 10 46 13 82 l6 65 7 -65 c3 -36 10 -73 14 -82z
m679 127 c-4 -8 -14 -15 -24 -15 -10 0 -20 7 -24 15 -4 11 2 15 24 15 22 0 28
-4 24 -15z m756 11 c0 -11 -19 -15 -25 -6 -3 5 1 10 9 10 9 0 16 -2 16 -4z
m2968 -8 c-6 -18 -28 -21 -28 -4 0 9 7 16 16 16 9 0 14 -5 12 -12z m32 8 c0
-3 -4 -8 -10 -11 -5 -3 -10 -1 -10 4 0 6 5 11 10 11 6 0 10 -2 10 -4z m-3010
-36 c0 -13 -28 -25 -38 -16 -3 4 0 11 8 16 20 13 30 12 30 0z m-110 -30 c0 -5
7 -10 15 -10 19 0 20 -24 2 -39 -10 -8 -17 -7 -25 1 -15 15 -16 58 -2 58 6 0
10 -4 10 -10z m3177 -10 c-5 -18 0 -20 39 -20 l44 0 0 -85 c0 -85 -6 -98 -34
-70 -8 8 -24 15 -35 15 -19 0 -20 4 -14 68 6 61 5 66 -10 54 -19 -16 -37 -8
-37 16 0 14 21 32 49 41 2 0 1 -8 -2 -19z m-3997 -10 c0 -5 -6 -10 -14 -10 -8
0 -18 5 -21 10 -3 6 3 10 14 10 12 0 21 -4 21 -10z m-473 -62 c-3 -8 -6 -5 -6
6 -1 11 2 17 5 13 3 -3 4 -12 1 -19z m70 0 c-3 -8 -6 -5 -6 6 -1 11 2 17 5 13
3 -3 4 -12 1 -19z m4963 2 c0 -21 -30 -27 -64 -14 -33 13 -17 34 24 34 33 0
40 -3 40 -20z m-4234 -12 c-9 -5 -33 -7 -54 -5 l-37 4 43 1 c23 1 42 7 42 13
0 5 5 7 11 3 8 -5 6 -10 -5 -16z m414 -38 c0 -22 -4 -40 -9 -40 -5 0 -11 18
-13 40 -2 28 0 40 9 40 8 0 13 -14 13 -40z m3718 33 c-10 -2 -26 -2 -35 0 -10
3 -2 5 17 5 19 0 27 -2 18 -5z m181 -18 c2 -2 1 -12 -3 -21 -6 -14 -9 -15 -28
-2 -35 23 -36 42 -2 34 16 -4 31 -9 33 -11z m-3832 -77 c-3 -7 -5 -2 -5 12 0
14 2 19 5 13 2 -7 2 -19 0 -25z m-584 15 c-13 -2 -33 -2 -45 0 -13 2 -3 4 22
4 25 0 35 -2 23 -4z m3974 -5 c-2 -7 4 -24 14 -37 14 -18 16 -28 8 -43 -6 -11
-17 -17 -25 -14 -10 4 -14 -3 -14 -24 0 -17 -4 -30 -10 -30 -6 0 -10 26 -10
58 0 46 -4 60 -20 70 -32 19 -23 32 21 32 28 0 39 -4 36 -12z m73 4 c0 -5 -7
-17 -15 -28 -14 -18 -14 -18 -15 9 0 17 5 27 15 27 8 0 15 -4 15 -8z m-3950
-72 c0 -5 7 -10 15 -10 8 0 15 -4 15 -10 0 -5 -7 -10 -15 -10 -8 0 -15 -4 -15
-10 0 -5 7 -10 15 -10 8 0 15 -4 15 -10 0 -5 -7 -10 -15 -10 -21 0 -19 -30 3
-31 15 -1 15 -2 -1 -6 -10 -3 -16 -10 -14 -17 3 -7 1 -19 -4 -27 -6 -9 -9 0
-9 29 l0 44 -77 -6 c-43 -3 -70 -3 -60 0 27 8 67 53 67 74 0 17 7 20 40 20 22
0 40 -4 40 -10z m77 -6 c-3 -3 -12 -4 -19 -1 -8 3 -5 6 6 6 11 1 17 -2 13 -5z
m-858 -56 c1 -10 -3 -18 -9 -18 -5 0 -10 17 -9 38 0 30 2 33 9 17 5 -11 9 -28
9 -37z m78 4 c9 2 18 -3 20 -9 3 -9 -6 -13 -27 -13 -25 0 -31 3 -26 16 3 9 7
21 7 27 1 7 3 4 6 -6 2 -10 12 -16 20 -15z m783 18 c0 -5 -7 -10 -15 -10 -8 0
-15 5 -15 10 0 6 7 10 15 10 8 0 15 -4 15 -10z m327 -12 c-3 -8 -6 -5 -6 6 -1
11 2 17 5 13 3 -3 4 -12 1 -19z m-327 -28 c0 -5 -7 -10 -15 -10 -8 0 -15 5
-15 10 0 6 7 10 15 10 8 0 15 -4 15 -10z m140 -72 c0 -5 -4 -8 -10 -8 -5 0
-10 10 -10 23 0 18 2 19 10 7 5 -8 10 -18 10 -22z m141 -8 c13 0 11 -13 -6
-36 -13 -18 -14 -16 -14 26 1 25 3 37 6 28 2 -10 9 -18 14 -18z m-368 -77 c-7
-2 -19 -2 -25 0 -7 3 -2 5 12 5 14 0 19 -2 13 -5z m-108 -25 l40 -3 -47 -5
c-43 -5 -48 -3 -48 15 0 13 3 16 8 8 4 -6 25 -13 47 -15z m471 -6 c-4 -15 -8
-38 -10 -52 -1 -14 -6 -35 -10 -48 l-8 -23 -24 26 c-26 29 -29 47 -14 92 9 24
17 30 41 31 29 1 31 -1 25 -26z m-620 -17 c3 -19 12 -35 19 -35 8 0 11 -8 8
-20 -7 -26 -15 -25 -42 6 -17 19 -21 33 -16 55 9 39 23 37 31 -6z m184 -40 c0
-8 -9 -15 -20 -15 -11 0 -20 4 -20 9 0 5 -10 12 -22 14 -13 2 -4 5 20 6 31 1
42 -3 42 -14z m123 -2 c-7 -2 -21 -2 -30 0 -10 3 -4 5 12 5 17 0 24 -2 18 -5z
m-283 -83 c0 -5 -2 -10 -4 -10 -3 0 -8 5 -11 10 -3 6 -1 10 4 10 6 0 11 -4 11
-10z m-160 -55 c0 -22 -4 -25 -40 -25 -29 0 -40 -4 -40 -15 0 -11 -11 -15 -40
-15 l-40 0 0 40 0 40 80 0 c79 0 80 0 80 -25z m673 -27 c-6 -30 -20 -37 -29
-14 -7 19 15 61 26 50 5 -5 6 -21 3 -36z m-63 2 c0 -5 -2 -10 -4 -10 -3 0 -8
5 -11 10 -3 6 -1 10 4 10 6 0 11 -4 11 -10z m-664 -70 l64 0 -2 -42 -1 -43 -4
38 c-4 36 -5 37 -44 37 -38 0 -39 -1 -39 -35 0 -34 -1 -35 -40 -35 -33 0 -40
3 -40 20 0 17 -7 20 -40 20 -37 0 -40 2 -40 26 0 27 0 27 61 20 34 -3 91 -6
125 -6z m1416 -12 c-7 -7 -12 -8 -12 -2 0 14 12 26 19 19 2 -3 -1 -11 -7 -17z
m-1322 -78 c0 -5 -2 -10 -4 -10 -3 0 -8 5 -11 10 -3 6 -1 10 4 10 6 0 11 -4
11 -10z m1210 -174 c0 -3 -4 -8 -10 -11 -5 -3 -10 -1 -10 4 0 6 5 11 10 11 6
0 10 -2 10 -4z m-1243 -128 c-3 -8 -6 -5 -6 6 -1 11 2 17 5 13 3 -3 4 -12 1
-19z m53 -118 c0 -5 -2 -10 -4 -10 -3 0 -8 5 -11 10 -3 6 -1 10 4 10 6 0 11
-4 11 -10z m1309 -51 c-7 -4 -17 -5 -22 -2 -5 3 -3 9 4 14 7 4 17 5 22 2 5 -3
3 -9 -4 -14z m57 -76 c-5 -4 -11 -2 -14 6 -4 11 -6 11 -13 0 -12 -20 -22 -4
-14 21 l7 22 21 -21 c11 -11 17 -24 13 -28z m342 -1938 c6 -12 30 -16 106 -17
85 -2 99 -4 108 -21 13 -26 1 -35 -51 -39 -25 -2 -46 -9 -49 -15 -3 -10 14
-13 62 -13 51 0 68 -4 73 -16 14 -36 -14 -39 -279 -36 l-258 4 0 24 c0 23 3
24 65 24 51 0 65 3 65 15 0 11 -12 15 -50 15 -47 0 -50 2 -50 25 0 27 -8 25
125 30 47 2 61 6 63 19 4 21 58 22 70 1z"/>
<path d="M2280 6215 c0 -8 5 -15 10 -15 6 0 10 7 10 15 0 8 -4 15 -10 15 -5 0
-10 -7 -10 -15z"/>
<path d="M3330 6090 l-23 -20 26 0 c20 0 27 5 27 20 0 11 -2 20 -3 20 -2 0
-14 -9 -27 -20z"/>
<path d="M3751 5744 c0 -11 3 -14 6 -6 3 7 2 16 -1 19 -3 4 -6 -2 -5 -13z"/>
<path d="M3792 5589 c2 -6 8 -10 13 -10 5 0 11 4 13 10 2 6 -4 11 -13 11 -9 0
-15 -5 -13 -11z"/>
<path d="M1662 5403 c5 -21 13 -55 16 -76 l7 -38 34 35 c19 20 30 36 23 36 -6
0 -14 11 -18 25 -7 28 -24 24 -24 -6 0 -10 -4 -19 -10 -19 -5 0 -10 18 -10 40
0 28 -4 40 -14 40 -11 0 -12 -7 -4 -37z"/>
<path d="M1698 5089 c-23 -39 -23 -49 1 -49 21 0 31 19 31 56 0 32 -11 30 -32
-7z"/>
<path d="M2000 4655 c0 -8 7 -15 16 -15 14 0 14 3 4 15 -7 8 -14 15 -16 15 -2
0 -4 -7 -4 -15z"/>
<path d="M5690 5480 c0 -29 4 -40 15 -40 11 0 15 11 15 40 0 29 -4 40 -15 40
-11 0 -15 -11 -15 -40z"/>
<path d="M5680 4920 c0 -33 3 -40 20 -40 17 0 20 7 20 40 0 33 -3 40 -20 40
-17 0 -20 -7 -20 -40z"/>
<path d="M5360 4840 l0 -40 40 0 40 0 0 40 0 40 -40 0 -40 0 0 -40z"/>
<path d="M5280 4740 c0 -13 7 -20 20 -20 18 0 20 -7 20 -80 0 -73 2 -80 20
-80 19 0 20 7 20 100 l0 100 -40 0 c-33 0 -40 -3 -40 -20z"/>
<path d="M1890 3770 c0 -5 10 -10 23 -10 18 0 19 2 7 10 -19 13 -30 13 -30 0z"/>
<path d="M3735 3494 c-16 -2 -66 -9 -109 -15 -92 -12 -244 -54 -266 -73 -14
-12 -59 -28 -87 -30 -14 -1 -70 -71 -79 -99 -4 -12 -13 -27 -21 -35 -9 -9 -10
-18 -4 -26 5 -6 16 -31 24 -56 14 -41 13 -47 -4 -80 -19 -35 -19 -35 1 -38 14
-2 20 -11 20 -27 0 -26 46 -99 79 -127 26 -22 31 -22 31 -3 0 24 13 18 60 -31
41 -41 168 -134 184 -134 4 0 19 -8 33 -17 39 -26 106 -42 209 -49 78 -6 99
-4 155 15 119 41 196 106 263 224 36 64 45 94 60 201 11 84 14 91 41 106 23
13 31 25 33 53 5 56 -10 73 -68 81 -27 4 -50 10 -50 15 0 4 -21 29 -47 54 -67
67 -139 89 -303 92 -69 2 -138 1 -155 -1z m589 -259 c-4 -8 -8 -15 -10 -15 -2
0 -4 7 -4 15 0 8 4 15 10 15 5 0 7 -7 4 -15z m-1054 -255 c0 -5 -2 -10 -4 -10
-3 0 -8 5 -11 10 -3 6 -1 10 4 10 6 0 11 -4 11 -10z m40 -52 c0 -13 -23 -5
-28 10 -2 7 2 10 12 6 9 -3 16 -11 16 -16z"/>
<path d="M2995 3230 c-4 -6 13 -10 44 -10 28 0 51 5 51 10 0 6 -20 10 -44 10
-25 0 -48 -4 -51 -10z"/>
<path d="M640 4175 c0 -11 11 -15 40 -15 29 0 40 4 40 15 0 11 -11 15 -40 15
-29 0 -40 -4 -40 -15z"/>
<path d="M410 3960 c0 -39 1 -40 35 -40 34 0 35 1 35 40 0 39 -1 40 -35 40
-34 0 -35 -1 -35 -40z"/>
<path d="M2232 538 c3 -8 29 -14 70 -16 52 -2 67 0 71 13 5 13 -5 15 -69 15
-56 0 -75 -3 -72 -12z"/>
<path d="M5920 4500 c0 -17 7 -20 40 -20 33 0 40 3 40 20 0 17 -7 20 -40 20
-33 0 -40 -3 -40 -20z"/>
<path d="M6386 4444 c-9 -24 -7 -77 4 -94 7 -11 10 3 10 48 0 63 -3 74 -14 46z"/>
<path d="M5103 4393 c35 -9 19 -33 -23 -33 -42 0 -58 -24 -22 -33 16 -4 16 -5
0 -6 -11 -1 -18 -9 -18 -21 0 -17 7 -20 40 -20 34 0 40 -3 41 -22 2 -28 17 64
18 110 1 29 -2 32 -26 31 -17 -1 -21 -3 -10 -6z"/>
<path d="M5494 4388 c3 -7 7 -25 10 -40 10 -45 36 -35 36 12 0 36 -3 40 -25
40 -15 0 -23 -5 -21 -12z"/>
<path d="M5618 4393 c12 -2 32 -2 45 0 12 2 2 4 -23 4 -25 0 -35 -2 -22 -4z"/>
<path d="M5760 4380 c0 -17 -7 -20 -40 -20 -29 0 -40 -4 -40 -15 0 -11 -12
-15 -42 -17 -37 -1 -39 -2 -10 -5 40 -5 40 -14 2 -46 -16 -14 -30 -34 -30 -43
0 -14 3 -15 12 -6 7 7 40 12 78 12 l65 0 18 -38 c18 -37 53 -69 64 -58 8 7
-20 96 -29 96 -4 0 -8 36 -8 80 0 73 -2 80 -20 80 -13 0 -20 -7 -20 -20z m-17
-67 c-13 -2 -33 -2 -45 0 -13 2 -3 4 22 4 25 0 35 -2 23 -4z m17 -33 c0 -5
-18 -10 -40 -10 -22 0 -40 5 -40 10 0 6 18 10 40 10 22 0 40 -4 40 -10z"/>
<path d="M4738 4293 c5 -25 6 -25 13 -8 11 29 10 35 -5 35 -9 0 -12 -8 -8 -27z"/>
<path d="M6388 4206 c-4 -66 -5 -122 -3 -125 13 -12 15 15 13 125 l-3 119 -7
-119z"/>
<path d="M5840 4280 c0 -17 7 -20 40 -20 33 0 40 3 40 20 0 17 -7 20 -40 20
-33 0 -40 -3 -40 -20z"/>
<path d="M4880 4260 c0 -17 -7 -20 -40 -20 -33 0 -40 -3 -40 -20 0 -17 7 -20
40 -20 33 0 40 3 40 20 0 17 7 20 40 20 33 0 40 3 40 20 0 17 -7 20 -40 20
-33 0 -40 -3 -40 -20z"/>
<path d="M5006 4226 c9 -24 34 -28 34 -6 0 13 -7 20 -20 20 -13 0 -17 -5 -14
-14z"/>
<path d="M5280 4180 c0 -24 57 -62 82 -54 10 3 49 2 88 -2 58 -5 70 -10 70
-25 0 -11 -9 -19 -22 -21 l-23 -3 23 -20 c12 -11 22 -26 22 -34 0 -9 16 0 40
24 22 21 40 47 40 57 0 14 -8 18 -40 18 -33 0 -40 3 -40 20 0 18 -7 20 -80 20
-73 0 -80 2 -80 20 0 17 -7 20 -40 20 -33 0 -40 -3 -40 -20z"/>
<path d="M6160 4115 c0 -34 1 -35 37 -35 l37 0 -34 35 c-19 19 -35 35 -37 35
-2 0 -3 -16 -3 -35z"/>
<path d="M4852 4116 c-13 -30 1 -76 25 -76 16 0 16 35 0 74 l-13 29 -12 -27z"/>
<path d="M4947 4090 c-4 -16 -2 -40 3 -52 7 -18 9 -12 9 30 1 58 -4 67 -12 22z"/>
<path d="M5680 4100 c0 -13 -7 -20 -20 -20 -17 0 -20 -7 -20 -40 l0 -40 -40 0
c-33 0 -40 -3 -40 -20 0 -15 -7 -20 -27 -20 -16 0 -42 -9 -60 -20 -27 -16 -32
-26 -35 -62 l-3 -43 -23 48 c-13 26 -30 47 -37 47 -7 0 -15 6 -18 13 -4 9 -7
9 -18 -1 -12 -11 -12 -14 0 -21 10 -7 10 -15 -4 -42 -10 -19 -23 -37 -29 -41
-7 -5 2 -13 22 -20 17 -7 32 -18 32 -25 0 -7 7 -13 15 -13 8 0 15 -4 15 -10 0
-5 7 -10 15 -10 8 0 15 -4 15 -9 0 -5 -9 -7 -20 -4 -25 7 -26 -12 -1 -29 10
-7 20 -22 22 -33 3 -11 11 -20 19 -21 34 -2 40 -5 40 -16 0 -6 -7 -20 -17 -30
-9 -10 -11 -18 -6 -18 6 0 13 -14 17 -31 4 -22 11 -30 23 -27 25 5 31 87 8
104 -22 16 -30 88 -11 107 13 13 12 19 -5 55 -25 49 -19 62 25 62 42 0 58 18
50 59 l-6 31 61 0 c54 0 61 -2 61 -20 0 -30 24 -24 37 10 10 27 9 78 -3 136
-5 29 -34 40 -34 14z"/>
<path d="M6273 4040 c0 -25 2 -35 4 -22 2 12 2 32 0 45 -2 12 -4 2 -4 -23z"/>
<path d="M5833 3880 c0 -25 2 -35 4 -22 2 12 2 32 0 45 -2 12 -4 2 -4 -23z"/>
<path d="M5920 3900 c0 -17 7 -20 40 -20 33 0 40 3 40 20 0 17 -7 20 -40 20
-33 0 -40 -3 -40 -20z"/>
<path d="M6283 3840 c0 -47 2 -66 4 -42 2 23 2 61 0 85 -2 23 -4 4 -4 -43z"/>
<path d="M6320 3904 c0 -17 22 -14 28 4 2 7 -3 12 -12 12 -9 0 -16 -7 -16 -16z"/>
<path d="M6370 3851 c-5 -11 -10 -27 -10 -35 0 -9 -6 -16 -12 -16 -9 0 -8 -4
2 -10 13 -9 13 -11 0 -20 -11 -7 -7 -10 18 -10 l32 0 0 55 c0 56 -11 70 -30
36z"/>
<path d="M5585 3850 c-3 -5 -1 -10 4 -10 6 0 11 5 11 10 0 6 -2 10 -4 10 -3 0
-8 -4 -11 -10z"/>
<path d="M5866 3798 c-9 -35 -8 -38 14 -38 11 0 20 3 20 8 0 19 -13 52 -20 52
-4 0 -10 -10 -14 -22z"/>
<path d="M5525 3670 c3 -5 10 -10 16 -10 5 0 9 5 9 10 0 6 -7 10 -16 10 -8 0
-12 -4 -9 -10z"/>
<path d="M6145 3670 c3 -5 8 -10 11 -10 2 0 4 5 4 10 0 6 -5 10 -11 10 -5 0
-7 -4 -4 -10z"/>
<path d="M6160 3620 c0 -17 7 -20 40 -20 33 0 40 3 40 20 0 17 -7 20 -40 20
-33 0 -40 -3 -40 -20z"/>
<path d="M5480 3520 c-14 -9 -14 -8 17 -110 3 -11 8 -9 18 10 24 42 -3 120
-35 100z"/>
<path d="M5660 3485 c0 -8 5 -15 10 -15 6 0 10 7 10 15 0 8 -4 15 -10 15 -5 0
-10 -7 -10 -15z"/>
<path d="M0 3340 c0 -13 5 -17 14 -14 24 9 28 34 6 34 -13 0 -20 -7 -20 -20z"/>
<path d="M5490 3326 c0 -19 5 -38 10 -41 6 -4 10 10 10 34 0 23 -4 41 -10 41
-5 0 -10 -15 -10 -34z"/>
<path d="M5591 3294 c0 -11 3 -14 6 -6 3 7 2 16 -1 19 -3 4 -6 -2 -5 -13z"/>
<path d="M0 2955 c0 -34 1 -35 40 -35 39 0 40 1 40 35 0 34 -1 35 -40 35 -39
0 -40 -1 -40 -35z"/>
<path d="M240 2901 c0 -12 6 -21 16 -21 9 0 14 7 12 17 -5 25 -28 28 -28 4z"/>
<path d="M180 2844 c9 -38 17 -51 26 -41 3 3 9 22 14 41 8 35 7 36 -20 36 -27
0 -28 -1 -20 -36z"/>
<path d="M6000 2816 c0 -9 5 -16 10 -16 6 0 10 4 10 9 0 6 -4 13 -10 16 -5 3
-10 -1 -10 -9z"/>
<path d="M290 2680 l0 -40 75 0 c41 0 75 4 75 8 0 20 -28 32 -72 32 -41 0 -48
3 -48 20 0 11 -7 20 -15 20 -11 0 -15 -11 -15 -40z"/>
<path d="M1 2288 c0 -28 2 -30 9 -13 12 28 12 45 0 45 -5 0 -10 -15 -9 -32z"/>
<path d="M5219 2169 c-12 -23 -1 -43 17 -31 6 4 14 17 18 30 10 29 -19 30 -35
1z"/>
<path d="M0 1754 c0 -15 26 -19 34 -5 3 5 -3 11 -14 14 -13 3 -20 0 -20 -9z"/>
<path d="M3380 542 c0 -9 12 -11 40 -8 22 3 40 1 40 -3 0 -12 60 -20 66 -9 3
4 11 8 17 8 7 0 6 -4 -3 -10 -8 -5 -10 -10 -4 -10 5 0 15 5 21 11 7 7 22 8 47
1 33 -10 36 -9 36 11 0 21 -3 22 -130 22 -99 0 -130 -3 -130 -13z"/>
<path d="M3380 500 c0 -5 7 -7 15 -4 8 4 15 8 15 10 0 2 -7 4 -15 4 -8 0 -15
-4 -15 -10z"/>
<path d="M3474 493 c12 -3 15 -8 8 -12 -8 -4 -3 -16 12 -34 26 -30 32 -27 46
23 l9 30 -47 -1 c-26 -1 -38 -4 -28 -6z m48 -35 c-7 -7 -12 -8 -12 -2 0 14 12
26 19 19 2 -3 -1 -11 -7 -17z"/>
<path d="M2712 440 l-33 -39 38 4 c21 1 47 4 58 4 19 2 19 2 1 12 -14 9 -20 8
-27 -2 -5 -8 -6 1 -2 24 3 20 4 37 2 36 -2 0 -19 -18 -37 -39z"/>
<path d="M3894 401 c2 -14 11 -39 19 -55 10 -18 14 -41 10 -60 -5 -30 -5 -30
13 -13 15 14 16 21 7 36 -10 16 -9 20 5 24 16 4 16 5 0 6 -13 1 -18 10 -18 30
0 37 9 43 46 31 16 -4 23 -9 17 -9 -7 -1 -13 -6 -13 -12 0 -17 27 8 33 31 4
17 -1 18 -59 18 -62 -1 -63 -1 -60 -27z"/>
<path d="M2800 410 c0 -5 5 -10 11 -10 5 0 7 5 4 10 -3 6 -8 10 -11 10 -2 0
-4 -4 -4 -10z"/>
<path d="M2950 410 c20 -13 50 -13 50 0 0 6 -15 10 -32 10 -25 0 -29 -3 -18
-10z"/>
<path d="M3380 381 c0 -17 2 -31 4 -31 8 0 13 51 5 56 -5 3 -9 -9 -9 -25z"/>
<path d="M3752 390 c0 -14 2 -19 5 -12 2 6 2 18 0 25 -3 6 -5 1 -5 -13z"/>
<path d="M2171 391 c-26 -17 10 -22 139 -20 101 2 130 5 130 16 0 10 -27 13
-127 13 -71 0 -134 -4 -142 -9z"/>
<path d="M3728 345 c-4 -33 -3 -80 1 -105 5 -25 9 -37 10 -27 0 10 9 17 21 17
21 0 28 24 10 35 -5 3 -10 17 -10 31 0 13 -4 24 -9 24 -6 0 -11 19 -13 43 -3
40 -3 39 -10 -18z"/>
<path d="M3421 374 c0 -11 3 -14 6 -6 3 7 2 16 -1 19 -3 4 -6 -2 -5 -13z"/>
<path d="M3434 329 c-10 -13 -13 -19 -6 -15 6 4 12 2 12 -4 0 -6 7 -4 16 5 11
10 13 20 7 26 -6 6 -16 2 -29 -12z"/>
<path d="M3375 330 c-3 -5 -1 -10 4 -10 6 0 11 5 11 10 0 6 -2 10 -4 10 -3 0
-8 -4 -11 -10z"/>
<path d="M2168 324 c-21 -21 3 -25 130 -23 91 2 139 6 139 13 0 13 -258 22
-269 10z"/>
<path d="M2785 320 c-14 -6 1 -9 48 -9 43 -1 66 3 62 9 -7 12 -82 12 -110 0z"/>
<path d="M4170 321 c-8 -6 -17 -8 -20 -6 -4 2 -7 -3 -7 -11 0 -8 6 -13 13 -10
9 3 11 -1 7 -11 -4 -10 -2 -14 4 -10 6 4 13 1 16 -5 5 -15 42 14 58 44 8 16 5
18 -23 18 -18 0 -40 -4 -48 -9z"/>
<path d="M2777 293 c18 -2 50 -2 70 0 21 2 7 4 -32 4 -38 0 -55 -2 -38 -4z"/>
<path d="M2750 270 c0 -6 37 -10 93 -9 61 1 84 4 67 9 -37 12 -160 12 -160 0z"/>
<path d="M3840 258 c0 -12 -8 -18 -25 -18 -14 0 -25 -4 -25 -9 0 -10 69 -10
72 -1 1 3 -3 14 -10 25 -10 17 -11 18 -12 3z"/>
<path d="M2376 241 c-26 -5 -28 -7 -13 -20 10 -7 17 -22 17 -32 0 -11 5 -19
10 -19 6 0 10 7 10 15 0 9 9 15 23 15 12 0 30 9 40 20 19 23 6 27 -17 5 -18
-19 -30 -19 -23 -1 7 18 -10 24 -47 17z"/>
<path d="M2898 240 c12 -5 22 -16 22 -25 0 -8 2 -15 4 -15 13 0 36 13 36 21 0
4 -8 5 -17 2 -12 -5 -15 -2 -10 10 5 14 0 17 -26 16 -29 0 -30 -1 -9 -9z"/>
<path d="M2580 225 c0 -8 5 -15 10 -15 6 0 10 7 10 15 0 8 -4 15 -10 15 -5 0
-10 -7 -10 -15z"/>
<path d="M3111 224 c0 -11 3 -14 6 -6 3 7 2 16 -1 19 -3 4 -6 -2 -5 -13z"/>
<path d="M3004 185 c-4 -11 -12 -23 -18 -27 -6 -4 -6 -16 2 -33 7 -15 10 -36
7 -46 -4 -11 -2 -19 4 -19 6 0 11 9 11 20 0 11 7 20 15 20 18 0 18 3 1 60 -12
38 -15 42 -22 25z"/>
<path d="M2940 177 c1 -7 7 -23 15 -37 10 -18 14 -20 15 -8 0 9 3 23 6 31 3 9
-3 16 -15 20 -13 3 -21 0 -21 -6z"/>
<path d="M3456 174 c-11 -7 -18 -16 -15 -18 2 -2 13 2 23 10 11 7 18 16 15 18
-2 2 -13 -2 -23 -10z"/>
<path d="M3651 178 c-1 -11 -6 -15 -16 -12 -8 4 -15 2 -15 -3 0 -6 -10 -15
-22 -21 -13 -6 -17 -11 -10 -11 17 -1 15 -28 -4 -35 -9 -3 -27 -6 -40 -6 -13
0 -24 -4 -24 -10 0 -5 18 -10 39 -10 22 0 42 -6 45 -12 6 -16 36 19 35 41 0
12 -2 11 -8 -3 -7 -18 -8 -18 -14 -2 -10 25 -10 24 19 51 14 13 24 30 21 37
-4 8 -6 7 -6 -4z"/>
<path d="M3231 148 c-13 -16 -26 -27 -29 -24 -8 9 -34 -33 -27 -43 3 -5 -3
-12 -12 -14 -15 -4 -15 -5 3 -6 36 -2 75 22 70 43 -3 10 2 29 11 43 23 34 12
35 -16 1z"/>
<path d="M2360 160 c0 -5 5 -10 11 -10 5 0 7 5 4 10 -3 6 -8 10 -11 10 -2 0
-4 -4 -4 -10z"/>
<path d="M3329 120 c-7 -22 -17 -40 -22 -40 -6 0 -8 -2 -5 -5 9 -9 38 7 38 21
0 8 4 14 10 14 5 0 9 11 8 25 -3 37 -16 30 -29 -15z"/>
<path d="M2111 118 c-13 -20 -13 -22 1 -10 13 10 18 9 29 -4 10 -12 10 -17 0
-23 -9 -6 -6 -10 11 -14 37 -11 70 -8 62 4 -3 6 -17 9 -31 6 -17 -3 -21 -1
-14 6 8 8 5 18 -11 34 -27 28 -30 28 -47 1z"/>
<path d="M3400 130 c0 -5 7 -10 15 -10 8 0 15 5 15 10 0 6 -7 10 -15 10 -8 0
-15 -4 -15 -10z"/>
<path d="M3655 115 c8 -35 10 -38 24 -34 6 3 2 17 -10 34 l-21 30 7 -30z"/>
<path d="M4160 129 c0 -5 5 -7 10 -4 6 3 10 8 10 11 0 2 -4 4 -10 4 -5 0 -10
-5 -10 -11z"/>
<path d="M2470 114 c0 -6 -9 -15 -21 -20 -16 -8 -12 -9 23 -10 24 0 35 1 26 4
-10 2 -18 8 -18 14 0 5 7 8 15 4 9 -3 15 0 15 9 0 8 -9 13 -20 12 -11 -1 -20
-6 -20 -13z"/>
<path d="M2655 103 c-13 -10 -17 -103 -5 -103 5 0 10 10 12 23 l3 22 23 -23
c24 -24 62 -30 62 -9 0 15 -19 46 -20 32 -1 -5 -6 6 -13 25 -12 35 -40 49 -62
33z"/>
<path d="M4160 102 c0 -6 -8 -13 -17 -15 -10 -3 -2 -5 17 -6 19 0 31 3 25 7
-5 4 -13 11 -17 16 -5 5 -8 5 -8 -2z"/>
<path d="M2740 90 c-12 -8 -9 -10 13 -10 16 0 26 4 22 10 -8 12 -16 12 -35 0z"/>
<path d="M4073 85 c-8 -9 -9 -16 -3 -20 6 -3 10 -1 10 4 0 6 7 11 15 11 8 0
15 5 15 10 0 15 -23 12 -37 -5z"/>
<path d="M3471 81 c-11 -7 -11 -13 0 -32 l12 -24 10 23 c12 26 -1 46 -22 33z"/>
<path d="M3835 65 c0 -26 9 -32 21 -14 3 6 0 17 -7 25 -12 11 -14 9 -14 -11z"/>
<path d="M2828 73 c0 -4 -1 -23 -2 -40 -1 -30 1 -33 30 -33 28 0 31 3 26 25
-3 17 0 25 9 25 11 1 11 3 -1 9 -26 15 -60 23 -62 14z"/>
<path d="M3660 46 c0 -17 37 -46 60 -46 13 0 13 1 0 10 -8 5 -15 17 -15 27 0
11 -9 19 -22 21 -15 2 -23 -2 -23 -12z"/>
<path d="M2170 40 c0 -13 27 -13 35 0 3 6 -3 10 -14 10 -12 0 -21 -4 -21 -10z"/>
<path d="M3808 3 c6 -2 18 -2 25 0 6 3 1 5 -13 5 -14 0 -19 -2 -12 -5z"/>
<path d="M4038 3 c7 -3 16 -2 19 1 4 3 -2 6 -13 5 -11 0 -14 -3 -6 -6z"/>
</g>
</svg>
